<?xml version="1.0" standalone="no"?>
<!DOCTYPE svg PUBLIC "-//W3C//DTD SVG 20010904//EN"
 "http://www.w3.org/TR/2001/REC-SVG-20010904/DTD/svg10.dtd">
<svg version="1.0" xmlns="http://www.w3.org/2000/svg"
 width="400.000000pt" height="400.000000pt" viewBox="0 0 400.000000 400.000000"
 preserveAspectRatio="xMidYMid meet">

<g transform="translate(0.000000,400.000000) scale(0.100000,-0.100000)"
fill="#000000" stroke="none">
<path d="M1760 3985 c-143 -18 -252 -43 -385 -86 -511 -167 -940 -544 -1175
-1031 -423 -879 -154 -1930 640 -2498 245 -175 523 -290 830 -345 125 -22 397
-30 532 -16 947 97 1692 842 1789 1789 14 135 6 407 -16 532 -105 597 -458
1104 -974 1402 -373 214 -828 307 -1241 253z m544 -264 c769 -134 1360 -775
1437 -1557 106 -1085 -820 -2011 -1905 -1905 -694 68 -1273 532 -1496 1198
-60 180 -82 323 -83 533 -1 177 8 264 44 418 148 628 662 1142 1291 1291 72
17 147 29 273 45 77 9 328 -4 439 -23z"/>
<path d="M1144 3095 c-31 -15 -87 -62 -146 -122 -122 -125 -128 -143 -117
-328 28 -461 222 -890 548 -1216 339 -338 748 -520 1243 -554 155 -11 179 0
314 137 123 125 138 153 138 253 0 84 -32 152 -101 215 -59 54 -91 66 -338
130 -176 45 -238 31 -352 -82 l-73 -72 -47 12 c-27 7 -90 33 -140 57 -277 131
-489 364 -589 648 l-27 78 65 67 c76 78 105 129 114 204 5 44 -2 82 -41 228
-53 195 -74 240 -140 298 -86 75 -215 95 -311 47z"/>
</g>
</svg>
