<?xml version="1.0" standalone="no"?>
<!DOCTYPE svg PUBLIC "-//W3C//DTD SVG 20010904//EN"
 "http://www.w3.org/TR/2001/REC-SVG-20010904/DTD/svg10.dtd">
<svg version="1.0" xmlns="http://www.w3.org/2000/svg"
 width="400.000000pt" height="400.000000pt" viewBox="0 0 400.000000 400.000000"
 preserveAspectRatio="xMidYMid meet">

<g transform="translate(0.000000,400.000000) scale(0.100000,-0.100000)"
fill="#000000" stroke="none">
<path d="M106 3290 c-62 -19 -98 -83 -81 -147 4 -19 169 -191 483 -508 262
-264 482 -481 489 -483 7 -2 17 15 23 40 6 24 22 76 36 115 14 40 24 77 22 82
-1 6 -143 151 -313 323 -171 172 -317 321 -324 331 -13 16 63 17 1558 17 1066
0 1571 -3 1571 -10 0 -6 -137 -149 -305 -319 l-304 -308 15 -54 c8 -30 17 -91
21 -136 3 -46 9 -83 13 -83 12 0 940 935 966 973 25 38 31 70 14 90 -6 7 -19
24 -31 39 -11 15 -37 32 -57 38 -46 12 -3753 12 -3796 0z"/>
<path d="M1895 2853 c-220 -46 -415 -180 -541 -369 -87 -131 -134 -262 -154
-432 -21 -170 3 -318 75 -467 91 -187 236 -311 440 -375 87 -28 292 -38 405
-21 80 12 216 54 244 74 15 11 15 16 -1 65 -9 28 -23 52 -30 52 -7 0 -46 -11
-86 -25 -106 -35 -246 -50 -349 -36 -256 34 -428 172 -505 405 -25 74 -27 95
-27 236 0 182 13 248 79 385 72 149 177 256 320 325 249 120 557 84 728 -85
53 -52 116 -158 136 -230 50 -175 24 -399 -59 -520 -62 -90 -163 -127 -212
-78 -38 38 -35 116 16 403 25 140 42 258 38 262 -4 4 -43 17 -86 28 -97 24
-246 27 -331 5 -250 -64 -424 -290 -425 -551 0 -93 24 -164 73 -220 60 -69
106 -89 202 -89 71 0 89 4 147 33 60 29 129 90 155 136 13 24 33 12 33 -20 0
-31 21 -72 52 -101 100 -93 300 -57 429 78 101 105 151 251 152 444 1 215 -57
361 -202 505 -99 98 -188 148 -323 180 -101 24 -288 26 -393 3z m301 -556 c14
-14 -42 -304 -70 -361 -33 -67 -95 -139 -140 -160 -53 -25 -118 -21 -155 9
-41 35 -54 83 -49 175 12 201 162 355 340 347 37 -1 70 -6 74 -10z"/>
<path d="M3872 2727 l-112 -112 -2 -810 -3 -810 -1750 0 -1750 0 -5 807 -5
807 -109 110 c-60 61 -112 108 -117 105 -5 -3 -9 -438 -9 -986 0 -1074 -3
-1023 58 -1065 26 -17 112 -18 1882 -21 1020 -2 1883 0 1917 3 52 5 67 12 97
40 l36 34 0 1005 c0 553 -3 1006 -8 1006 -4 0 -58 -51 -120 -113z"/>
</g>
</svg>
